# MagicaVoxel @ ephtracy

# material
mtllib FloatingIsland1.mtl
usemtl palette

# normals
vn -1 0 0
vn 1 0 0
vn 0 0 1
vn 0 0 -1
vn 0 -1 0
vn 0 1 0

# texcoords
vt 0.994141 0.5

# verts
v -23 32 16
v -23 32 -9
v -23 33 17
v -23 33 16
v -23 50 17
v -23 50 -9
v -21 31 16
v -21 31 -24
v -21 32 17
v -21 32 16
v -21 32 -9
v -21 33 17
v -21 33 16
v -21 50 -9
v -21 50 -24
v -17 31 21
v -17 31 16
v -17 32 17
v -17 32 16
v -17 50 21
v -17 50 17
v -15 30 21
v -15 30 -24
v -15 31 21
v -15 31 -24
v -14 29 21
v -14 29 -24
v -14 30 21
v -14 30 -24
v -13 28 21
v -13 28 -24
v -13 29 21
v -13 29 -24
v -12 27 21
v -12 27 -24
v -12 28 21
v -12 28 -24
v -11 26 21
v -11 26 -24
v -11 27 21
v -11 27 -24
v -7 25 21
v -7 25 -1
v -7 26 21
v -7 26 -1
v -5 24 21
v -5 24 -1
v -5 25 21
v -5 25 -1
v -3 24 -1
v -3 24 -5
v -3 50 -1
v -3 50 -5
v 11 25 9
v 11 25 -1
v 11 26 15
v 11 26 9
v 11 26 -1
v 11 50 15
v 11 50 9
v 12 25 14
v 12 25 9
v 12 25 -1
v 12 25 -7
v 12 26 14
v 12 26 9
v 12 50 -1
v 12 50 -7
v -10 26 -18
v -10 26 -24
v -10 50 -18
v -10 50 -24
v -9 26 -1
v -9 26 -11
v -9 50 -1
v -9 50 -11
v -7 26 -11
v -7 26 -18
v -7 50 -11
v -7 50 -18
v 1 24 21
v 1 24 9
v 1 50 21
v 1 50 9
v 2 24 -1
v 2 24 -5
v 2 50 -1
v 2 50 -5
v 6 24 9
v 6 24 -1
v 6 25 9
v 6 25 -1
v 8 25 9
v 8 25 -1
v 8 26 9
v 8 26 -1
v 15 25 14
v 15 25 -7
v 15 26 15
v 15 26 14
v 15 26 -7
v 15 27 15
v 15 27 14
v 16 27 15
v 16 27 14
v 16 28 15
v 16 28 14
v 17 26 14
v 17 26 -7
v 17 27 14
v 17 27 -7
v 19 28 15
v 19 28 14
v 19 30 15
v 19 30 14
v 20 30 15
v 20 30 14
v 20 31 15
v 20 31 14
v 21 27 14
v 21 27 -7
v 21 28 14
v 21 28 -7
v 21 31 15
v 21 31 14
v 21 31 13
v 21 32 14
v 21 32 13
v 21 33 15
v 21 33 14
v 22 28 14
v 22 28 -7
v 22 31 14
v 22 31 13
v 22 32 14
v 22 32 13
v 22 33 15
v 22 33 14
v 22 50 15
v 22 50 -7
v -17 31 21
v -17 50 21
v -15 30 21
v -15 31 21
v -14 29 21
v -14 30 21
v -13 28 21
v -13 29 21
v -12 27 21
v -12 28 21
v -11 26 21
v -11 27 21
v -7 25 21
v -7 26 21
v -5 24 21
v -5 25 21
v 1 24 21
v 1 50 21
v -23 33 17
v -23 50 17
v -21 32 17
v -21 33 17
v -17 32 17
v -17 50 17
v -23 32 16
v -23 33 16
v -21 31 16
v -21 32 16
v -21 33 16
v -17 31 16
v -17 32 16
v 11 26 15
v 11 50 15
v 15 26 15
v 15 27 15
v 16 27 15
v 16 28 15
v 19 28 15
v 19 30 15
v 20 30 15
v 20 31 15
v 21 31 15
v 21 33 15
v 22 33 15
v 22 50 15
v 12 25 14
v 12 26 14
v 15 25 14
v 15 26 14
v 15 27 14
v 16 27 14
v 16 28 14
v 17 26 14
v 17 27 14
v 19 28 14
v 19 30 14
v 20 30 14
v 20 31 14
v 21 27 14
v 21 28 14
v 21 31 14
v 21 32 14
v 21 33 14
v 22 28 14
v 22 31 14
v 22 32 14
v 22 33 14
v 21 31 13
v 21 32 13
v 22 31 13
v 22 32 13
v 1 24 9
v 1 50 9
v 6 24 9
v 6 25 9
v 8 25 9
v 8 26 9
v 11 25 9
v 11 26 9
v 11 50 9
v 12 25 9
v 12 26 9
v -9 26 -11
v -9 50 -11
v -7 26 -11
v -7 50 -11
v -9 26 -1
v -9 50 -1
v -7 25 -1
v -7 26 -1
v -5 24 -1
v -5 25 -1
v -3 24 -1
v -3 50 -1
v 2 24 -1
v 2 50 -1
v 6 24 -1
v 6 25 -1
v 8 25 -1
v 8 26 -1
v 11 25 -1
v 11 26 -1
v 12 25 -1
v 12 50 -1
v -3 24 -5
v -3 50 -5
v 2 24 -5
v 2 50 -5
v 12 25 -7
v 12 50 -7
v 15 25 -7
v 15 26 -7
v 17 26 -7
v 17 27 -7
v 21 27 -7
v 21 28 -7
v 22 28 -7
v 22 50 -7
v -23 32 -9
v -23 50 -9
v -21 32 -9
v -21 50 -9
v -10 26 -18
v -10 50 -18
v -7 26 -18
v -7 50 -18
v -21 31 -24
v -21 50 -24
v -15 30 -24
v -15 31 -24
v -14 29 -24
v -14 30 -24
v -13 28 -24
v -13 29 -24
v -12 27 -24
v -12 28 -24
v -11 26 -24
v -11 27 -24
v -10 26 -24
v -10 50 -24
v -5 24 21
v 1 24 21
v 1 24 9
v 6 24 9
v -5 24 -1
v -3 24 -1
v 2 24 -1
v 6 24 -1
v -3 24 -5
v 2 24 -5
v -7 25 21
v -5 25 21
v 12 25 14
v 15 25 14
v 6 25 9
v 8 25 9
v 11 25 9
v 12 25 9
v -7 25 -1
v -5 25 -1
v 6 25 -1
v 8 25 -1
v 11 25 -1
v 12 25 -1
v 12 25 -7
v 15 25 -7
v -11 26 21
v -7 26 21
v 11 26 15
v 15 26 15
v 12 26 14
v 15 26 14
v 17 26 14
v 8 26 9
v 11 26 9
v 12 26 9
v -9 26 -1
v -7 26 -1
v 8 26 -1
v 11 26 -1
v 15 26 -7
v 17 26 -7
v -9 26 -11
v -7 26 -11
v -10 26 -18
v -7 26 -18
v -11 26 -24
v -10 26 -24
v -12 27 21
v -11 27 21
v 15 27 15
v 16 27 15
v 15 27 14
v 16 27 14
v 17 27 14
v 21 27 14
v 17 27 -7
v 21 27 -7
v -12 27 -24
v -11 27 -24
v -13 28 21
v -12 28 21
v 16 28 15
v 19 28 15
v 16 28 14
v 19 28 14
v 21 28 14
v 22 28 14
v 21 28 -7
v 22 28 -7
v -13 28 -24
v -12 28 -24
v -14 29 21
v -13 29 21
v -14 29 -24
v -13 29 -24
v -15 30 21
v -14 30 21
v 19 30 15
v 20 30 15
v 19 30 14
v 20 30 14
v -15 30 -24
v -14 30 -24
v -17 31 21
v -15 31 21
v -21 31 16
v -17 31 16
v 20 31 15
v 21 31 15
v 20 31 14
v 21 31 14
v -21 31 -24
v -15 31 -24
v -21 32 17
v -17 32 17
v -23 32 16
v -21 32 16
v -17 32 16
v 21 32 14
v 22 32 14
v 21 32 13
v 22 32 13
v -23 32 -9
v -21 32 -9
v -23 33 17
v -21 33 17
v -23 33 16
v -21 33 16
v 21 33 15
v 22 33 15
v 21 33 14
v 22 33 14
v 21 31 14
v 22 31 14
v 21 31 13
v 22 31 13
v -17 50 21
v 1 50 21
v -23 50 17
v -17 50 17
v 11 50 15
v 22 50 15
v 1 50 9
v 11 50 9
v -9 50 -1
v -3 50 -1
v 2 50 -1
v 12 50 -1
v -3 50 -5
v 2 50 -5
v 12 50 -7
v 22 50 -7
v -23 50 -9
v -21 50 -9
v -9 50 -11
v -7 50 -11
v -10 50 -18
v -7 50 -18
v -21 50 -24
v -10 50 -24

# faces
f 4/1/1 2/1/1 1/1/1
f 5/1/1 4/1/1 3/1/1
f 6/1/1 2/1/1 4/1/1
f 6/1/1 4/1/1 5/1/1
f 10/1/1 8/1/1 7/1/1
f 11/1/1 8/1/1 10/1/1
f 12/1/1 10/1/1 9/1/1
f 13/1/1 10/1/1 12/1/1
f 14/1/1 8/1/1 11/1/1
f 15/1/1 8/1/1 14/1/1
f 18/1/1 17/1/1 16/1/1
f 19/1/1 17/1/1 18/1/1
f 20/1/1 18/1/1 16/1/1
f 21/1/1 18/1/1 20/1/1
f 24/1/1 23/1/1 22/1/1
f 25/1/1 23/1/1 24/1/1
f 28/1/1 27/1/1 26/1/1
f 29/1/1 27/1/1 28/1/1
f 32/1/1 31/1/1 30/1/1
f 33/1/1 31/1/1 32/1/1
f 36/1/1 35/1/1 34/1/1
f 37/1/1 35/1/1 36/1/1
f 40/1/1 39/1/1 38/1/1
f 41/1/1 39/1/1 40/1/1
f 44/1/1 43/1/1 42/1/1
f 45/1/1 43/1/1 44/1/1
f 48/1/1 47/1/1 46/1/1
f 49/1/1 47/1/1 48/1/1
f 52/1/1 51/1/1 50/1/1
f 53/1/1 51/1/1 52/1/1
f 57/1/1 55/1/1 54/1/1
f 58/1/1 55/1/1 57/1/1
f 59/1/1 57/1/1 56/1/1
f 60/1/1 57/1/1 59/1/1
f 65/1/1 62/1/1 61/1/1
f 66/1/1 62/1/1 65/1/1
f 67/1/1 64/1/1 63/1/1
f 68/1/1 64/1/1 67/1/1
f 69/1/2 70/1/2 71/1/2
f 71/1/2 70/1/2 72/1/2
f 73/1/2 74/1/2 75/1/2
f 75/1/2 74/1/2 76/1/2
f 77/1/2 78/1/2 79/1/2
f 79/1/2 78/1/2 80/1/2
f 81/1/2 82/1/2 83/1/2
f 83/1/2 82/1/2 84/1/2
f 85/1/2 86/1/2 87/1/2
f 87/1/2 86/1/2 88/1/2
f 89/1/2 90/1/2 91/1/2
f 91/1/2 90/1/2 92/1/2
f 93/1/2 94/1/2 95/1/2
f 95/1/2 94/1/2 96/1/2
f 97/1/2 98/1/2 100/1/2
f 100/1/2 98/1/2 101/1/2
f 99/1/2 100/1/2 102/1/2
f 102/1/2 100/1/2 103/1/2
f 104/1/2 105/1/2 106/1/2
f 106/1/2 105/1/2 107/1/2
f 108/1/2 109/1/2 110/1/2
f 110/1/2 109/1/2 111/1/2
f 112/1/2 113/1/2 114/1/2
f 114/1/2 113/1/2 115/1/2
f 116/1/2 117/1/2 118/1/2
f 118/1/2 117/1/2 119/1/2
f 120/1/2 121/1/2 122/1/2
f 122/1/2 121/1/2 123/1/2
f 124/1/2 125/1/2 127/1/2
f 125/1/2 126/1/2 127/1/2
f 127/1/2 126/1/2 128/1/2
f 124/1/2 127/1/2 129/1/2
f 129/1/2 127/1/2 130/1/2
f 131/1/2 132/1/2 133/1/2
f 133/1/2 132/1/2 134/1/2
f 134/1/2 132/1/2 136/1/2
f 135/1/2 136/1/2 138/1/2
f 137/1/2 138/1/2 139/1/2
f 136/1/2 132/1/2 140/1/2
f 139/1/2 138/1/2 140/1/2
f 138/1/2 136/1/2 140/1/2
f 144/1/3 142/1/3 141/1/3
f 146/1/3 144/1/3 143/1/3
f 148/1/3 146/1/3 145/1/3
f 150/1/3 148/1/3 147/1/3
f 152/1/3 150/1/3 149/1/3
f 154/1/3 152/1/3 151/1/3
f 156/1/3 154/1/3 153/1/3
f 157/1/3 156/1/3 155/1/3
f 158/1/3 142/1/3 144/1/3
f 158/1/3 156/1/3 157/1/3
f 158/1/3 144/1/3 146/1/3
f 158/1/3 154/1/3 156/1/3
f 158/1/3 146/1/3 148/1/3
f 158/1/3 152/1/3 154/1/3
f 158/1/3 148/1/3 150/1/3
f 158/1/3 150/1/3 152/1/3
f 162/1/3 160/1/3 159/1/3
f 163/1/3 162/1/3 161/1/3
f 164/1/3 160/1/3 162/1/3
f 164/1/3 162/1/3 163/1/3
f 168/1/3 166/1/3 165/1/3
f 169/1/3 166/1/3 168/1/3
f 170/1/3 168/1/3 167/1/3
f 171/1/3 168/1/3 170/1/3
f 174/1/3 173/1/3 172/1/3
f 175/1/3 173/1/3 174/1/3
f 176/1/3 173/1/3 175/1/3
f 177/1/3 173/1/3 176/1/3
f 178/1/3 173/1/3 177/1/3
f 179/1/3 173/1/3 178/1/3
f 180/1/3 173/1/3 179/1/3
f 181/1/3 173/1/3 180/1/3
f 182/1/3 173/1/3 181/1/3
f 183/1/3 173/1/3 182/1/3
f 184/1/3 173/1/3 183/1/3
f 185/1/3 173/1/3 184/1/3
f 188/1/3 187/1/3 186/1/3
f 189/1/3 187/1/3 188/1/3
f 191/1/3 190/1/3 189/1/3
f 193/1/3 191/1/3 189/1/3
f 193/1/3 192/1/3 191/1/3
f 194/1/3 192/1/3 193/1/3
f 195/1/3 192/1/3 194/1/3
f 197/1/3 196/1/3 195/1/3
f 199/1/3 195/1/3 194/1/3
f 199/1/3 198/1/3 197/1/3
f 199/1/3 197/1/3 195/1/3
f 200/1/3 198/1/3 199/1/3
f 201/1/3 198/1/3 200/1/3
f 204/1/3 201/1/3 200/1/3
f 205/1/3 201/1/3 204/1/3
f 206/1/3 203/1/3 202/1/3
f 207/1/3 203/1/3 206/1/3
f 210/1/3 209/1/3 208/1/3
f 211/1/3 209/1/3 210/1/3
f 214/1/3 213/1/3 212/1/3
f 215/1/3 213/1/3 214/1/3
f 216/1/3 213/1/3 215/1/3
f 217/1/3 213/1/3 216/1/3
f 219/1/3 213/1/3 217/1/3
f 220/1/3 213/1/3 219/1/3
f 221/1/3 219/1/3 218/1/3
f 222/1/3 219/1/3 221/1/3
f 225/1/3 224/1/3 223/1/3
f 226/1/3 224/1/3 225/1/3
f 227/1/4 228/1/4 230/1/4
f 229/1/4 230/1/4 232/1/4
f 231/1/4 232/1/4 233/1/4
f 230/1/4 228/1/4 234/1/4
f 233/1/4 232/1/4 234/1/4
f 232/1/4 230/1/4 234/1/4
f 235/1/4 236/1/4 237/1/4
f 237/1/4 236/1/4 238/1/4
f 238/1/4 236/1/4 239/1/4
f 239/1/4 236/1/4 240/1/4
f 240/1/4 236/1/4 242/1/4
f 241/1/4 242/1/4 243/1/4
f 242/1/4 236/1/4 244/1/4
f 243/1/4 242/1/4 244/1/4
f 245/1/4 246/1/4 247/1/4
f 247/1/4 246/1/4 248/1/4
f 249/1/4 250/1/4 251/1/4
f 251/1/4 250/1/4 252/1/4
f 252/1/4 250/1/4 253/1/4
f 253/1/4 250/1/4 254/1/4
f 254/1/4 250/1/4 255/1/4
f 255/1/4 250/1/4 256/1/4
f 256/1/4 250/1/4 257/1/4
f 257/1/4 250/1/4 258/1/4
f 259/1/4 260/1/4 261/1/4
f 261/1/4 260/1/4 262/1/4
f 263/1/4 264/1/4 265/1/4
f 265/1/4 264/1/4 266/1/4
f 267/1/4 268/1/4 270/1/4
f 269/1/4 270/1/4 272/1/4
f 271/1/4 272/1/4 274/1/4
f 273/1/4 274/1/4 276/1/4
f 275/1/4 276/1/4 278/1/4
f 277/1/4 278/1/4 279/1/4
f 270/1/4 268/1/4 280/1/4
f 279/1/4 278/1/4 280/1/4
f 272/1/4 270/1/4 280/1/4
f 278/1/4 276/1/4 280/1/4
f 274/1/4 272/1/4 280/1/4
f 276/1/4 274/1/4 280/1/4
f 283/1/5 282/1/5 281/1/5
f 285/1/5 283/1/5 281/1/5
f 285/1/5 284/1/5 283/1/5
f 286/1/5 284/1/5 285/1/5
f 287/1/5 284/1/5 286/1/5
f 288/1/5 284/1/5 287/1/5
f 289/1/5 287/1/5 286/1/5
f 290/1/5 287/1/5 289/1/5
f 298/1/5 294/1/5 293/1/5
f 299/1/5 292/1/5 291/1/5
f 300/1/5 292/1/5 299/1/5
f 301/1/5 296/1/5 295/1/5
f 302/1/5 296/1/5 301/1/5
f 303/1/5 298/1/5 297/1/5
f 304/1/5 294/1/5 298/1/5
f 304/1/5 298/1/5 303/1/5
f 305/1/5 294/1/5 304/1/5
f 306/1/5 294/1/5 305/1/5
f 311/1/5 310/1/5 309/1/5
f 312/1/5 310/1/5 311/1/5
f 315/1/5 311/1/5 309/1/5
f 316/1/5 311/1/5 315/1/5
f 317/1/5 308/1/5 307/1/5
f 318/1/5 308/1/5 317/1/5
f 319/1/5 315/1/5 314/1/5
f 320/1/5 315/1/5 319/1/5
f 321/1/5 313/1/5 312/1/5
f 322/1/5 313/1/5 321/1/5
f 323/1/5 317/1/5 307/1/5
f 325/1/5 323/1/5 307/1/5
f 325/1/5 324/1/5 323/1/5
f 326/1/5 324/1/5 325/1/5
f 327/1/5 325/1/5 307/1/5
f 328/1/5 325/1/5 327/1/5
f 333/1/5 332/1/5 331/1/5
f 334/1/5 332/1/5 333/1/5
f 337/1/5 336/1/5 335/1/5
f 338/1/5 336/1/5 337/1/5
f 339/1/5 330/1/5 329/1/5
f 340/1/5 330/1/5 339/1/5
f 345/1/5 344/1/5 343/1/5
f 346/1/5 344/1/5 345/1/5
f 349/1/5 348/1/5 347/1/5
f 350/1/5 348/1/5 349/1/5
f 351/1/5 342/1/5 341/1/5
f 352/1/5 342/1/5 351/1/5
f 355/1/5 354/1/5 353/1/5
f 356/1/5 354/1/5 355/1/5
f 361/1/5 360/1/5 359/1/5
f 362/1/5 360/1/5 361/1/5
f 363/1/5 358/1/5 357/1/5
f 364/1/5 358/1/5 363/1/5
f 368/1/5 366/1/5 365/1/5
f 371/1/5 370/1/5 369/1/5
f 372/1/5 370/1/5 371/1/5
f 373/1/5 368/1/5 367/1/5
f 374/1/5 366/1/5 368/1/5
f 374/1/5 368/1/5 373/1/5
f 378/1/5 376/1/5 375/1/5
f 379/1/5 376/1/5 378/1/5
f 382/1/5 381/1/5 380/1/5
f 383/1/5 381/1/5 382/1/5
f 384/1/5 378/1/5 377/1/5
f 385/1/5 378/1/5 384/1/5
f 388/1/5 387/1/5 386/1/5
f 389/1/5 387/1/5 388/1/5
f 392/1/5 391/1/5 390/1/5
f 393/1/5 391/1/5 392/1/5
f 394/1/6 395/1/6 396/1/6
f 396/1/6 395/1/6 397/1/6
f 398/1/6 399/1/6 401/1/6
f 401/1/6 399/1/6 404/1/6
f 400/1/6 401/1/6 404/1/6
f 402/1/6 403/1/6 405/1/6
f 400/1/6 404/1/6 406/1/6
f 404/1/6 405/1/6 406/1/6
f 406/1/6 405/1/6 407/1/6
f 407/1/6 405/1/6 408/1/6
f 405/1/6 403/1/6 409/1/6
f 408/1/6 405/1/6 409/1/6
f 407/1/6 408/1/6 410/1/6
f 410/1/6 408/1/6 411/1/6
f 409/1/6 403/1/6 412/1/6
f 412/1/6 403/1/6 413/1/6
f 400/1/6 406/1/6 414/1/6
f 414/1/6 406/1/6 415/1/6
f 415/1/6 406/1/6 416/1/6
f 415/1/6 416/1/6 418/1/6
f 416/1/6 417/1/6 418/1/6
f 418/1/6 417/1/6 419/1/6
f 415/1/6 418/1/6 420/1/6
f 420/1/6 418/1/6 421/1/6
